<svg width="26" height="8" viewBox="0 0 26 8" fill="none" xmlns="http://www.w3.org/2000/svg">
<path d="M0.152178 3.45869C-0.0507259 3.66159 -0.0507259 3.99056 0.152178 4.19347L3.45868 7.49997C3.66159 7.70288 3.99056 7.70288 4.19346 7.49997C4.39637 7.29707 4.39637 6.9681 4.19346 6.7652L1.25435 3.82608L4.19346 0.886961C4.39637 0.684057 4.39637 0.355085 4.19346 0.152181C3.99056 -0.0507224 3.66159 -0.0507224 3.45868 0.152181L0.152178 3.45869ZM25.8478 4.19347C26.0507 3.99056 26.0507 3.66159 25.8478 3.45869L22.5413 0.152181C22.3384 -0.0507224 22.0095 -0.0507224 21.8065 0.152181C21.6036 0.355085 21.6036 0.684057 21.8065 0.886961L24.7457 3.82608L21.8065 6.7652C21.6036 6.9681 21.6036 7.29707 21.8065 7.49997C22.0095 7.70288 22.3384 7.70288 22.5413 7.49997L25.8478 4.19347ZM0.519567 4.34565H25.4804V3.30651H0.519567V4.34565Z" fill="black"/>
</svg>
